<svg id="Layer_1" version="1.1" viewBox="0 0 196.2 54.8" x="0" xmlns="http://www.w3.org/2000/svg"
    y="0" xml:space="preserve"><path class="st0" d="M0 35.4V0h1.8v35.4H0zm5.4 5.2h4c1.5 0 2.7.3 3.4.9.8.6 1.2 1.5 1.2 2.5 0 .7-.2 1.3-.5 1.9-.4.6-.9 1-1.6 1.2.8.3 1.4.7 1.9 1.4s.7 1.4.7 2.2c0 1.2-.4 2.2-1.3 2.9-.8.7-2.1 1-3.9 1H5.4v-14zm3.7 5.8c2.2 0 3.3-.7 3.3-2.2 0-.6-.3-1.2-.8-1.6-.5-.4-1.2-.7-2.3-.7H6.9v4.4h2.2zm.5 6.8c2.2 0 3.2-.9 3.2-2.6 0-1.9-1.2-2.8-3.7-2.8H6.9v5.5h2.7zM7.2 35.4V0H9v35.4H7.2zm3.6 0V0h3.6v35.4h-3.6zM19.8 35.4V0h1.8v35.4h-1.8zm3.6 0V0h1.8v35.4h-1.8zm8.5 15.1h-4.5l-1.4 4h-1.6l5.1-14.2h.2l5.2 14.2h-1.6l-1.4-4zm-.4-1.2L29.7 44l-1.9 5.3h3.7zm-.9-13.9V0h3.6v35.4h-3.6zM39.6 35.4V0h3.6v35.4h-3.6zm5.6 5.2h4.1c1.6 0 2.8.4 3.5 1.1.8.7 1.1 1.7 1.1 2.9 0 .8-.3 1.6-.8 2.3-.5.7-1.2 1.2-2 1.4l3.2 6.2h-1.7l-3.1-6.1h-2.7v6.1h-1.6V40.6zm4.2 6.4c1 0 1.7-.2 2.2-.7.4-.4.7-1 .7-1.7 0-.8-.2-1.4-.7-1.9-.5-.4-1.2-.7-2.2-.7h-2.7v5h2.7zm-.8-11.6V0h1.8v35.4h-1.8zm3.6 0V0h5.4v35.4h-5.4zM59.4 35.4V0h1.8v35.4h-1.8zm10.7 19.4c-1 0-2-.3-2.8-.8-.8-.5-1.5-1.3-2-2.3-.5-1.1-.7-2.4-.7-4 0-1.7.3-3.1.8-4.1.5-1 1.2-1.8 2-2.3.8-.4 1.7-.7 2.6-.7 1 0 1.9.2 2.6.7.7.5 1.3 1.1 1.6 2l-1.3.7h-.2l-.1-.1v-.2c0-.2-.1-.4-.3-.7-.3-.4-.7-.8-1.1-1-.4-.2-.8-.3-1.3-.3-1.2 0-2.1.5-2.8 1.6-.6 1-1 2.4-1 4.3 0 1.1.2 2.1.5 3.1.4.9.8 1.6 1.4 2 .6.5 1.3.7 2 .7.6 0 1.1-.1 1.6-.4.5-.3.9-.7 1.3-1.3l1.1.8c-.5.8-1 1.3-1.6 1.7-.7.4-1.4.6-2.3.6zm-3.5-19.4V0h1.8v35.4h-1.8zm7.2 0V0h3.6v35.4h-3.6zM79.2 35.4V0H81v35.4h-1.8zm9.9 19.4c-1.6 0-2.8-.6-3.7-1.9-.9-1.2-1.3-3-1.3-5.3 0-2.2.4-3.9 1.3-5.2.9-1.2 2.1-1.9 3.7-1.9s2.8.6 3.7 1.9c.9 1.3 1.3 3 1.3 5.2 0 2.3-.4 4-1.3 5.3-.9 1.3-2.1 1.9-3.7 1.9zm0-1.4c1.1 0 1.9-.5 2.5-1.4.6-1 .9-2.4.9-4.3 0-1.8-.3-3.2-.9-4.2-.6-1-1.4-1.5-2.5-1.5-1 0-1.9.5-2.5 1.5-.6 1-.9 2.4-.9 4.2 0 1.9.3 3.3.8 4.3.7.9 1.5 1.4 2.6 1.4zm-2.7-18V0h5.4v35.4h-5.4zm7.2 0V0h3.6v35.4h-3.6zM99 35.4V0h1.8v35.4H99zm3.6 0V0h3.6v35.4h-3.6zm1.9 5.2h3.2c1.2 0 2.1.2 2.7.5.7.3 1.3.8 1.7 1.4.9 1.2 1.4 2.9 1.4 5.1-.1 2.3-.6 4-1.6 5.2-1 1.2-2.5 1.8-4.5 1.7h-3V40.6zm2.9 12.7c3.1 0 4.6-1.9 4.6-5.6 0-1.9-.3-3.3-1-4.3s-1.8-1.5-3.4-1.5H106v11.4h1.4zm4.2-17.9V0h1.8v35.4h-1.8zM118.8 35.4V0h1.8v35.4h-1.8zm5.6 5.2h8.5V42h-7.1v4.6h5.9V48h-5.9v5.2h7v1.4h-8.5v-14zm1.6-5.2V0h3.6v35.4H126zm5.4 0V0h1.8v35.4h-1.8zM138.6 35.4V0h1.8v35.4h-1.8zm3.6 0V0h1.8v35.4h-1.8zm8.5 15.1h-4.5l-1.4 4.1h-1.6l5.1-14.2h.2l5.2 14.2h-1.6l-1.4-4.1zm-.4-1.2l-1.8-5.3-1.9 5.3h3.7zm-.9-13.9V0h3.6v35.4h-3.6zM158.4 35.4V0h5.4v35.4h-5.4zm5.6 5.2h4.4c1.5 0 2.6.4 3.3 1.1.8.7 1.1 1.7 1.1 2.8 0 1.1-.4 2-1.1 2.8-.7.7-1.8 1.1-3.2 1.1h-2.9v6.1H164V40.6zm1.6-5.2V0h5.4v35.4h-5.4zm2.8 11.6c1 0 1.7-.2 2.2-.7.5-.4.7-1 .7-1.7 0-.8-.2-1.4-.7-1.8-.5-.5-1.2-.7-2.1-.7h-2.8V47h2.7zm4.4-11.6V0h3.6v35.4h-3.6zM178.2 35.4V0h3.6v35.4h-3.6zm6.1 17.8h2.8V41.9h-2.6v-1.3h6.9v1.3h-2.8v11.3h2.9v1.3h-7.2v-1.3zm2.9-17.8V0h1.8v35.4h-1.8zm7.2 0V0h1.8v35.4h-1.8z"/></svg>